<?xml version="1.0" encoding="UTF-8" standalone="no"?>
<!-- Generator: Adobe Illustrator 18.0.0, SVG Export Plug-In . SVG Version: 6.00 Build 0)  -->

<svg
   xmlns:dc="http://purl.org/dc/elements/1.1/"
   xmlns:cc="http://creativecommons.org/ns#"
   xmlns:rdf="http://www.w3.org/1999/02/22-rdf-syntax-ns#"
   xmlns:svg="http://www.w3.org/2000/svg"
   xmlns="http://www.w3.org/2000/svg"
   xmlns:sodipodi="http://sodipodi.sourceforge.net/DTD/sodipodi-0.dtd"
   xmlns:inkscape="http://www.inkscape.org/namespaces/inkscape"
   version="1.1"
   id="Layer_1"
   x="0px"
   y="0px"
   viewBox="0 0 18 5.9999999"
   enable-background="new 0 0 109.1 36.8"
   xml:space="preserve"
   inkscape:version="0.48.5 r10040"
   width="100%"
   height="100%"
   sodipodi:docname="shadow.svg"><metadata
     id="metadata26"><rdf:RDF><cc:Work
         rdf:about=""><dc:format>image/svg+xml</dc:format><dc:type
           rdf:resource="http://purl.org/dc/dcmitype/StillImage" /></cc:Work></rdf:RDF></metadata><defs
     id="defs24" /><sodipodi:namedview
     pagecolor="#ffffff"
     bordercolor="#666666"
     borderopacity="1"
     objecttolerance="10"
     gridtolerance="10"
     guidetolerance="10"
     inkscape:pageopacity="0"
     inkscape:pageshadow="2"
     inkscape:window-width="1440"
     inkscape:window-height="791"
     id="namedview22"
     showgrid="false"
     fit-margin-top="0"
     fit-margin-left="0"
     fit-margin-right="0"
     fit-margin-bottom="0"
     inkscape:zoom="3.0064161"
     inkscape:cx="54.566363"
     inkscape:cy="18.299999"
     inkscape:window-x="0"
     inkscape:window-y="0"
     inkscape:window-maximized="1"
     inkscape:current-layer="Layer_1" /><g
     id="g3"
     transform="matrix(0.16500914,0,0,0.16348774,0.00269966,0)"><g
       id="g5"><linearGradient
         id="SVGID_1_"
         gradientUnits="userSpaceOnUse"
         x1="60.981998"
         y1="10.8517"
         x2="13.4643"
         y2="32.965599"><stop
           offset="0"
           style="stop-color:#FFFFFF;stop-opacity:0"
           id="stop8" /><stop
           offset="7.645589e-02"
           style="stop-color:#EDEDED;stop-opacity:7.645589e-02"
           id="stop10" /><stop
           offset="0.408"
           style="stop-color:#A3A3A3;stop-opacity:0.408"
           id="stop12" /><stop
           offset="0.6832"
           style="stop-color:#6E6E6E;stop-opacity:0.6832"
           id="stop14" /><stop
           offset="0.8882"
           style="stop-color:#4C4C4C;stop-opacity:0.8882"
           id="stop16" /><stop
           offset="1"
           style="stop-color:#404040"
           id="stop18" /></linearGradient><path
         d="M 80.8,0 C 54.5,0 21.6,6.1 7.2,13.7 3.7,15.5 1.7,17.3 0.9,18.9 h 0 c 0,0 0,0.1 -0.1,0.1 0,0 0,0 0,0 -2.4,4.8 1.1,7.6 2.7,10.8 1.7,3.2 7.6,6.9 7.6,6.9 0,0 20.3,-3.7 33.9,-6.9 13.3,-3.1 27.3,-5.9 42.9,-10.6 0.3,-0.1 0.7,-0.2 1,-0.3 0.1,0 0.2,0 0.2,-0.1 h 0 c 5.3,-1.6 9.8,-3.3 13.3,-5.2 C 116.8,6.1 107.1,0 80.8,0 z"
         id="path20"
         style="fill:url(#SVGID_1_)"
         inkscape:connector-curvature="0" /></g></g></svg>