<?xml version="1.0" encoding="UTF-8" standalone="no"?>
<!-- Generator: Adobe Illustrator 18.0.0, SVG Export Plug-In . SVG Version: 6.00 Build 0)  -->

<svg
   xmlns:dc="http://purl.org/dc/elements/1.1/"
   xmlns:cc="http://creativecommons.org/ns#"
   xmlns:rdf="http://www.w3.org/1999/02/22-rdf-syntax-ns#"
   xmlns:svg="http://www.w3.org/2000/svg"
   xmlns="http://www.w3.org/2000/svg"
   xmlns:sodipodi="http://sodipodi.sourceforge.net/DTD/sodipodi-0.dtd"
   xmlns:inkscape="http://www.inkscape.org/namespaces/inkscape"
   version="1.1"
   id="Cluster_selected"
   x="0px"
   y="0px"
   viewBox="0 0 30.002926 39.949541"
   enable-background="new 0 0 120 160"
   xml:space="preserve"
   inkscape:version="0.48.5 r10040"
   width="100%"
   height="100%"
   sodipodi:docname="cluster_selected.svg"><metadata
     id="metadata36"><rdf:RDF><cc:Work
         rdf:about=""><dc:format>image/svg+xml</dc:format><dc:type
           rdf:resource="http://purl.org/dc/dcmitype/StillImage" /></cc:Work></rdf:RDF></metadata><defs
     id="defs34" /><sodipodi:namedview
     pagecolor="#ffffff"
     bordercolor="#666666"
     borderopacity="1"
     objecttolerance="10"
     gridtolerance="10"
     guidetolerance="10"
     inkscape:pageopacity="0"
     inkscape:pageshadow="2"
     inkscape:window-width="1440"
     inkscape:window-height="791"
     id="namedview32"
     showgrid="false"
     fit-margin-top="0"
     fit-margin-left="0"
     fit-margin-right="0"
     fit-margin-bottom="0"
     inkscape:zoom="1.475"
     inkscape:cx="58.901463"
     inkscape:cy="78.374754"
     inkscape:window-x="0"
     inkscape:window-y="0"
     inkscape:window-maximized="1"
     inkscape:current-layer="Cluster_selected" /><g
     id="g3"
     transform="matrix(0.2551272,0,0,0.25510542,-0.28065626,-0.43366288)"><g
       id="g5"><linearGradient
         id="SVGID_1_"
         gradientUnits="userSpaceOnUse"
         x1="59.9156"
         y1="52.365101"
         x2="59.9119"
         y2="156.9081"><stop
           offset="0"
           style="stop-color:#FCFFBF"
           id="stop8" /><stop
           offset="0.2514"
           style="stop-color:#FCFEBC"
           id="stop10" /><stop
           offset="0.4231"
           style="stop-color:#FCFCB3"
           id="stop12" /><stop
           offset="0.5712"
           style="stop-color:#FDF7A4"
           id="stop14" /><stop
           offset="0.7057"
           style="stop-color:#FDF18E"
           id="stop16" /><stop
           offset="0.8312"
           style="stop-color:#FEE972"
           id="stop18" /><stop
           offset="0.9483"
           style="stop-color:#FFDF51"
           id="stop20" /><stop
           offset="1"
           style="stop-color:#FFDA3F"
           id="stop22" /></linearGradient><path
         d="m 113,82.1 0,0 c 2.7,-6.7 4.2,-14 4.2,-21.6 C 117.2,28.9 91.5,3.2 59.9,3.2 28.3,3.2 2.6,28.9 2.6,60.5 c 0,7.6 1.5,14.9 4.2,21.6 h 0 c 0.1,0.2 0.2,0.4 0.2,0.6 0,0.1 0.1,0.1 0.1,0.2 8.1,20.1 18.7,31.9 27.8,44.9 9.2,13.2 25,29 25,29 0,0 15.7,-15.8 25,-29 9.1,-13 19.7,-24.9 27.8,-44.9 0,-0.1 0.1,-0.1 0.1,-0.2 0,-0.2 0.1,-0.4 0.2,-0.6 z"
         id="path24"
         style="fill:url(#SVGID_1_)"
         inkscape:connector-curvature="0" /></g><g
       id="g26"><path
         stroke-miterlimit="10"
         d="m 113,82.1 0,0 c 2.7,-6.7 4.2,-14 4.2,-21.6 C 117.2,28.9 91.5,3.2 59.9,3.2 28.3,3.2 2.6,28.9 2.6,60.5 c 0,7.6 1.5,14.9 4.2,21.6 h 0 c 0.1,0.2 0.2,0.4 0.2,0.6 0,0.1 0.1,0.1 0.1,0.2 8.1,20.1 18.7,31.9 27.8,44.9 9.2,13.2 25,29 25,29 0,0 15.7,-15.8 25,-29 9.1,-13 19.7,-24.9 27.8,-44.9 0,-0.1 0.1,-0.1 0.1,-0.2 0,-0.2 0.1,-0.4 0.2,-0.6 z"
         id="path28"
         inkscape:connector-curvature="0"
         style="fill:none;stroke:#d8a641;stroke-width:3;stroke-miterlimit:10" /></g></g><circle
     stroke-miterlimit="10"
     cx="59.799999"
     cy="60.5"
     r="43.299999"
     id="circle30"
     sodipodi:cx="59.799999"
     sodipodi:cy="60.5"
     sodipodi:rx="43.299999"
     sodipodi:ry="43.299999"
     transform="matrix(0.2551272,0,0,0.25510542,-0.28065626,-0.43366288)"
     style="fill:#ffffff;stroke:#d8a641;stroke-width:3.39170003;stroke-miterlimit:10" /></svg>