<?xml version="1.0" encoding="utf-8"?>
<!-- Generator: Adobe Illustrator 18.0.0, SVG Export Plug-In . SVG Version: 6.00 Build 0)  -->
<!DOCTYPE svg PUBLIC "-//W3C//DTD SVG 1.1//EN" "http://www.w3.org/Graphics/SVG/1.1/DTD/svg11.dtd">
<svg version="1.1" id="Single_selected" xmlns="http://www.w3.org/2000/svg" xmlns:xlink="http://www.w3.org/1999/xlink" x="0px"
	 y="0px" viewBox="0 0 120 160" enable-background="new 0 0 120 160" xml:space="preserve">
<g>
	<g>
		<linearGradient id="SVGID_1_" gradientUnits="userSpaceOnUse" x1="59.9156" y1="52.3651" x2="59.9119" y2="156.9081">
			<stop  offset="0" style="stop-color:#FCFFBF"/>
			<stop  offset="0.2514" style="stop-color:#FCFEBC"/>
			<stop  offset="0.4231" style="stop-color:#FCFCB3"/>
			<stop  offset="0.5712" style="stop-color:#FDF7A4"/>
			<stop  offset="0.7057" style="stop-color:#FDF18E"/>
			<stop  offset="0.8312" style="stop-color:#FEE972"/>
			<stop  offset="0.9483" style="stop-color:#FFDF51"/>
			<stop  offset="1" style="stop-color:#FFDA3F"/>
		</linearGradient>
		<path fill="url(#SVGID_1_)" d="M113,82.1L113,82.1c2.7-6.7,4.2-14,4.2-21.6c0-31.6-25.7-57.3-57.3-57.3S2.6,28.9,2.6,60.5
			c0,7.6,1.5,14.9,4.2,21.6h0c0.1,0.2,0.2,0.4,0.2,0.6c0,0.1,0.1,0.1,0.1,0.2c8.1,20.1,18.7,31.9,27.8,44.9c9.2,13.2,25,29,25,29
			s15.7-15.8,25-29c9.1-13,19.7-24.9,27.8-44.9c0-0.1,0.1-0.1,0.1-0.2C112.8,82.5,112.9,82.3,113,82.1z"/>
	</g>
	<g>
		<path fill="none" stroke="#D8A641" stroke-width="3" stroke-miterlimit="10" d="M113,82.1L113,82.1c2.7-6.7,4.2-14,4.2-21.6
			c0-31.6-25.7-57.3-57.3-57.3S2.6,28.9,2.6,60.5c0,7.6,1.5,14.9,4.2,21.6h0c0.1,0.2,0.2,0.4,0.2,0.6c0,0.1,0.1,0.1,0.1,0.2
			c8.1,20.1,18.7,31.9,27.8,44.9c9.2,13.2,25,29,25,29s15.7-15.8,25-29c9.1-13,19.7-24.9,27.8-44.9c0-0.1,0.1-0.1,0.1-0.2
			C112.8,82.5,112.9,82.3,113,82.1z"/>
	</g>
</g>
<circle fill="#FFFFFF" stroke="#D8A641" stroke-width="3" stroke-miterlimit="10" cx="59.8" cy="60.5" r="10.2"/>
</svg>
